<svg xmlns="http://www.w3.org/2000/svg" width="1200" height="630" viewBox="0 0 1200 630">
  <defs>
    <linearGradient id="bg" x1="0" y1="0" x2="1200" y2="630" gradientUnits="userSpaceOnUse">
      <stop stop-color="#21143F"/><stop offset=".5" stop-color="#0B0715"/><stop offset="1" stop-color="#071726"/>
    </linearGradient>
    <radialGradient id="glowA" cx="0" cy="0" r="1" gradientTransform="translate(180 210) rotate(35) scale(430 350)"><stop stop-color="#8F70FF" stop-opacity=".28"/><stop offset="1" stop-color="#8F70FF" stop-opacity="0"/></radialGradient>
    <radialGradient id="glowB" cx="0" cy="0" r="1" gradientTransform="translate(1050 520) rotate(-140) scale(430 310)"><stop stop-color="#35D7FF" stop-opacity=".2"/><stop offset="1" stop-color="#35D7FF" stop-opacity="0"/></radialGradient>
    <linearGradient id="gold" x1="0" y1="0" x2="1" y2="1"><stop stop-color="#FFF3B0"/><stop offset=".42" stop-color="#F3D87A"/><stop offset="1" stop-color="#D8B75B"/></linearGradient>
    <linearGradient id="ring" x1="90" y1="80" x2="390" y2="420" gradientUnits="userSpaceOnUse"><stop stop-color="#F3D87A"/><stop offset=".62" stop-color="#D8B75B"/><stop offset=".84" stop-color="#8F70FF"/><stop offset="1" stop-color="#35D7FF"/></linearGradient>
    <filter id="shadow" x="-30%" y="-30%" width="160%" height="160%"><feDropShadow dx="0" dy="18" stdDeviation="20" flood-color="#000" flood-opacity=".42"/></filter>
    <filter id="textGlow" x="-20%" y="-20%" width="140%" height="140%"><feGaussianBlur stdDeviation="6" result="b"/><feMerge><feMergeNode in="b"/><feMergeNode in="SourceGraphic"/></feMerge></filter>
  </defs>
  <rect width="1200" height="630" fill="url(#bg)"/>
  <rect width="1200" height="630" fill="url(#glowA)"/>
  <rect width="1200" height="630" fill="url(#glowB)"/>
  <g opacity=".08" stroke="#FFF" stroke-width="1"><path d="M0 105H1200M0 210H1200M0 315H1200M0 420H1200M0 525H1200"/><path d="M120 0V630M240 0V630M360 0V630M480 0V630M600 0V630M720 0V630M840 0V630M960 0V630M1080 0V630"/></g>
  <path d="M762 500C830 448 882 548 947 490C1010 434 1061 510 1200 416" fill="none" stroke="#35D7FF" stroke-width="5" opacity=".45"/>
  <path d="M762 530C843 486 895 558 970 520C1048 481 1112 545 1200 495" fill="none" stroke="#D8B75B" stroke-width="5" opacity=".4"/>

  <g filter="url(#shadow)">
    <rect x="64" y="78" width="332" height="332" rx="74" fill="#08060F" fill-opacity=".94" stroke="#FFFFFF" stroke-opacity=".08" stroke-width="2"/>
    <circle cx="230" cy="244" r="119" fill="#05040B" stroke="url(#ring)" stroke-width="8"/>
    <circle cx="230" cy="244" r="100" fill="none" stroke="#FFFFFF" stroke-opacity=".1" stroke-width="2" stroke-dasharray="4 12"/>
    <path d="M130 184C153 232 169 302 200 318C220 328 227 286 233 258C242 289 250 328 270 318C302 302 316 232 335 184" fill="none" stroke="url(#gold)" stroke-width="24" stroke-linecap="round" stroke-linejoin="round" filter="url(#textGlow)"/>
    <path d="M298 224C317 211 334 193 346 172" fill="none" stroke="#35D7FF" stroke-width="7" stroke-linecap="round"/>
    <path d="M342 172L360 164L351 183Z" fill="#35D7FF"/>
  </g>

  <text x="452" y="126" fill="#F3D87A" font-family="Inter,Segoe UI,Arial,sans-serif" font-size="24" font-weight="800" letter-spacing="8">OPTIONS FLOW INTELLIGENCE</text>
  <text x="448" y="226" fill="#F7F3FF" font-family="Inter,Segoe UI,Arial,sans-serif" font-size="78" font-weight="900" letter-spacing="1">WAVY FLOW</text>
  <text x="452" y="300" fill="url(#gold)" font-family="Inter,Segoe UI,Arial,sans-serif" font-size="51" font-weight="800" letter-spacing="15">TERMINAL</text>
  <text x="452" y="360" fill="#C7BED7" font-family="Inter,Segoe UI,Arial,sans-serif" font-size="25" font-weight="600">SPX + NDX market structure, flow, GEX, OI,</text>
  <text x="452" y="395" fill="#C7BED7" font-family="Inter,Segoe UI,Arial,sans-serif" font-size="25" font-weight="600">and premium contract intelligence.</text>

  <g font-family="Inter,Segoe UI,Arial,sans-serif" font-size="16" font-weight="800">
    <rect x="452" y="440" width="170" height="48" rx="24" fill="#35E09A" fill-opacity=".10" stroke="#35E09A" stroke-opacity=".48"/>
    <text x="537" y="470" text-anchor="middle" fill="#8BF2C5">0DTE / 1DTE</text>
    <rect x="638" y="440" width="194" height="48" rx="24" fill="#D8B75B" fill-opacity=".11" stroke="#D8B75B" stroke-opacity=".48"/>
    <text x="735" y="470" text-anchor="middle" fill="#F3D87A">LIVE STRUCTURE</text>
    <rect x="848" y="440" width="266" height="48" rx="24" fill="#8F70FF" fill-opacity=".12" stroke="#8F70FF" stroke-opacity=".5"/>
    <text x="981" y="470" text-anchor="middle" fill="#C4B5FF">PREMIUM STRIKE RADAR</text>
  </g>

  <rect x="64" y="540" width="1072" height="1" fill="#FFFFFF" fill-opacity=".10"/>
  <text x="64" y="582" fill="#8E849D" font-family="Inter,Segoe UI,Arial,sans-serif" font-size="18" font-weight="700" letter-spacing="3">WAVY-FLOW-TERMINAL.PAGES.DEV</text>
  <text x="1136" y="582" text-anchor="end" fill="#8E849D" font-family="Inter,Segoe UI,Arial,sans-serif" font-size="18" font-weight="700" letter-spacing="2">READ-ONLY PUBLISHED DATA</text>
</svg>
